<svg xmlns="http://www.w3.org/2000/svg" xml:space="preserve" viewBox="0 0 37 18">
  <path fill="#fff" stroke="#f2f2f2" stroke-linecap="square" stroke-width=".602" d="M23.616 2.698v12.693h-3.167V8.586q0-1.474-.07-1.772-.071-.298-.393-.447-.313-.157-1.411-.157h-.314V4.73q2.297-.494 3.49-2.03Zm6.114 0v12.693h-3.166V8.586q0-1.474-.07-1.772-.071-.298-.393-.447-.314-.157-1.411-.157h-.314V4.73q2.297-.494 3.489-2.03Z" font-family="Bungee Inline" font-size="16.056" font-weight="700" style="line-height:1.03;-inkscape-font-specification:'Bungee Inline Bold';text-align:center" text-anchor="middle" transform="matrix(1 0 0 1.01003 -2.037 -1.86)"/>
  <path fill="#d7d9d9" d="M7.664 7.287H4.677v-1.2q0-.627-.102-.847-.102-.227-.376-.227-.275 0-.369.196-.094.196-.094.878v4.908q0 .556.141.839.141.274.416.274.321 0 .431-.29.118-.29.118-1.098V9.482h2.822q-.008 1.246-.094 1.873-.079.62-.525 1.278-.44.65-1.153.988-.713.33-1.764.33-1.34 0-2.124-.455Q1.22 13.033.89 12.21q-.32-.831-.32-2.352V6.902q0-1.325.266-1.999.267-.674 1.137-1.2.87-.532 2.117-.532 1.239 0 2.117.525.878.525 1.168 1.325.29.8.29 2.266zm4.375-4.117c-.894 0-1.62.168-2.18.502-.56.335-.933.722-1.121 1.161-.183.434-.274 1.053-.274 1.858v.697l.004 3.194 2.965-1.825.002-1.369v-1.09c0-.58.026-.937.078-1.073.052-.141.186-.212.4-.212a.41.41 0 0 1 .4.25c.084.163.126.516.126 1.06 0 .077-.002.147-.005.215h.003v2.279l.002-.002v2.14l-.002.206v.005c-.008.4-.04.654-.093.762-.057.12-.185.18-.384.18-.209 0-.35-.078-.423-.235-.053-.121-.085-.358-.097-.707h-.005V7.689c-.22.095-.475.201-.776.32-.972.375-1.581.704-1.827.987-.246.282-.368.812-.368 1.591v.854c0 1.05.23 1.733.69 2.047a2.71 2.71 0 0 0 1.528.462c.423 0 .787-.091 1.09-.274.308-.188.559-.468.752-.839v1.105h3.081V8.541c0-1.72-.054-2.854-.164-3.403-.11-.554-.436-1.018-.98-1.395-.543-.381-1.351-.572-2.422-.572Z" font-family="Bungee Inline" font-size="16.056" font-weight="700" style="line-height:1.03;-inkscape-font-specification:'Bungee Inline Bold';text-align:center" text-anchor="middle"/>
  <path fill="#d7d9d9" d="m29 3.214.022 7.167a6.766 6.766 0 0 0-.004.22v.854c0 1.05.23 1.732.69 2.046a2.71 2.71 0 0 0 1.529.462c.423 0 .787-.091 1.09-.274.308-.188.559-.468.752-.839l.023 1.163c.014.517.014.527-.453.548l-3.66.005v1.463h-.002v1.486l4.847.002c1.864-.015 2.285-1.045 2.317-2.279l-.002-1.23a5.29 5.29 0 0 0 .011-.233c-.01-1.966.016-8.637-.005-10.552l-3.182-.01c0 1.06.02 6.694.02 7.756 0 .072 0 .14-.002.205v.005c-.008.4-.039.654-.092.762-.058.12-.186.18-.384.18-.21 0-.35-.078-.424-.235-.052-.121-.084-.358-.096-.707h-.005v-.336l-.019-7.63z"/>
</svg>