<?xml version="1.0" encoding="UTF-8" standalone="no"?>
<svg
   xml:space="preserve"
   viewBox="0 0 32 32"
   version="1.1"
   id="svg692"
   sodipodi:docname="favi.svg"
   inkscape:version="1.2.1 (9c6d41e4, 2022-07-14)"
   width="32"
   height="32"
   xmlns:inkscape="http://www.inkscape.org/namespaces/inkscape"
   xmlns:sodipodi="http://sodipodi.sourceforge.net/DTD/sodipodi-0.dtd"
   xmlns="http://www.w3.org/2000/svg"
   xmlns:svg="http://www.w3.org/2000/svg"><defs
   id="defs696" /><sodipodi:namedview
   id="namedview694"
   pagecolor="#ffffff"
   bordercolor="#000000"
   borderopacity="0.25"
   inkscape:showpageshadow="2"
   inkscape:pageopacity="0.0"
   inkscape:pagecheckerboard="0"
   inkscape:deskcolor="#d1d1d1"
   showgrid="false"
   inkscape:zoom="8.6025969"
   inkscape:cx="9.2995175"
   inkscape:cy="8.6020537"
   inkscape:window-width="1728"
   inkscape:window-height="1016"
   inkscape:window-x="0"
   inkscape:window-y="38"
   inkscape:window-maximized="1"
   inkscape:current-layer="svg692" />
  
  <rect
   style="fill:#800000;stroke:none;stroke-width:4.25105;stroke-linecap:square"
   id="rect1784"
   width="32.107517"
   height="32.211353"
   x="0.034322035"
   y="0" /><path
   fill="#d7d9d9"
   d="m 24.293862,13.003297 h -7.385687 v -2.967132 c 0,-1.0335508 -0.08407,-1.7316508 -0.252206,-2.0943005 -0.168138,-0.3741882 -0.478038,-0.5612827 -0.929702,-0.5612827 -0.453312,0 -0.757442,0.1615428 -0.912393,0.4846319 -0.15495,0.3230877 -0.232425,1.0467382 -0.232425,2.1709513 v 12.135569 c 0,0.916516 0.116213,1.608021 0.348638,2.074521 0.232425,0.451664 0.575294,0.677496 1.028606,0.677496 0.529138,0 0.88437,-0.239025 1.065695,-0.717056 0.194513,-0.478036 0.291768,-1.383013 0.291768,-2.714927 v -3.06109 h 6.977706 c -0.01304,2.053913 -0.09069,3.597646 -0.232427,4.631196 -0.130224,1.022013 -0.562929,2.075346 -1.298119,3.159997 -0.7253,1.071464 -1.675607,1.885779 -2.850921,2.442939 -1.175314,0.543973 -2.629208,0.815959 -4.361683,0.815959 -2.208865,0 -3.959473,-0.375009 -5.251824,-1.125036 C 9.0065373,27.592519 8.0883749,26.532597 7.5444005,25.175955 7.0169105,23.806129 6.7531654,21.867603 6.7531654,19.360379 v -7.309037 c 0,-2.1841384 0.2192392,-3.8317211 0.6577143,-4.9427472 0.4401247,-1.1110261 1.3772439,-2.1000699 2.8113573,-2.9671319 1.434114,-0.8769523 3.178953,-1.3154285 5.234516,-1.3154285 2.042376,0 3.787214,0.4327067 5.234515,1.2981201 1.4473,0.8654135 2.409972,1.9574831 2.888009,3.2762086 0.47804,1.3187251 0.717056,3.1863699 0.717056,5.6029339 z"
   font-family="'Bungee Inline'"
   font-size="16.056px"
   font-weight="700"
   style="line-height:1.03;-inkscape-font-specification:'Bungee Inline Bold';text-align:center;fill:#ffffff;stroke-width:2.47263"
   text-anchor="middle"
   id="path688"
   sodipodi:nodetypes="ccscsssscscscccccsccssccssscc" />
  
</svg>
